<svg xmlns="http://www.w3.org/2000/svg" width="1600" height="900" viewBox="0 0 1600 900" data-origin="course-original">
  <title>Course-original search evidence and claim chain</title>
  <rect width="1600" height="900" rx="48" fill="#111827"/>
  <circle cx="340" cy="420" r="145" fill="#1d4ed8" stroke="#93c5fd" stroke-width="9"/>
  <circle cx="310" cy="390" r="62" fill="none" stroke="#f8fafc" stroke-width="24"/>
  <path d="m355 438 82 82" stroke="#f8fafc" stroke-width="24" stroke-linecap="round"/>
  <g fill="#312e81" stroke="#a78bfa" stroke-width="7"><rect x="650" y="220" width="320" height="150" rx="35"/><rect x="650" y="400" width="320" height="150" rx="35"/><rect x="650" y="580" width="320" height="150" rx="35"/></g>
  <g stroke="#ede9fe" stroke-width="19" stroke-linecap="round"><path d="M720 270h180M720 320h120M720 450h180M720 500h120M720 630h180M720 680h120"/></g>
  <path d="M500 420h120M990 475h150" stroke="#64748b" stroke-width="18" stroke-linecap="round"/>
  <rect x="1130" y="330" width="320" height="290" rx="50" fill="#134e4a" stroke="#5eead4" stroke-width="8"/>
  <path d="M1200 410h180M1200 480h130M1200 550h160" stroke="#f0fdfa" stroke-width="22" stroke-linecap="round"/>
</svg>
